<svg width="88" height="10" viewBox="0 0 88 10" fill="none" xmlns="http://www.w3.org/2000/svg">
<path d="M3.05631 9.5026C2.40679 9.5026 1.85514 9.40028 1.40137 9.19564C0.947591 8.99099 0.600586 8.69292 0.360352 8.30143C0.120117 7.90994 0 7.42057 0 6.83333V6.3929H1.48145V6.87337C1.48145 7.30935 1.61491 7.64746 1.88184 7.88769C2.14876 8.11903 2.54026 8.2347 3.05631 8.2347C3.56348 8.2347 3.95052 8.06565 4.21745 7.72754C4.48437 7.38943 4.61784 6.90451 4.61784 6.27279V0.186849H6.11263V6.24609C6.11263 6.9668 5.99251 7.57183 5.75228 8.0612C5.51204 8.54167 5.16504 8.90202 4.71126 9.14225C4.25749 9.38249 3.70584 9.5026 3.05631 9.5026Z" fill="white"/>
<path d="M12.3893 9.5026C11.4461 9.5026 10.6276 9.3291 9.93354 8.9821C9.24843 8.63509 8.71903 8.11013 8.34533 7.40723C7.98053 6.70432 7.79813 5.82346 7.79813 4.76465C7.79813 3.69694 7.98053 2.81608 8.34533 2.12207C8.71903 1.41916 9.24843 0.894206 9.93354 0.547201C10.6276 0.200196 11.4461 0.0266932 12.3893 0.0266932C13.3502 0.0266932 14.1732 0.200196 14.8583 0.547201C15.5435 0.894206 16.0684 1.41916 16.4332 2.12207C16.8069 2.81608 16.9938 3.69694 16.9938 4.76465C16.9938 5.82346 16.8069 6.70432 16.4332 7.40723C16.0684 8.11013 15.5435 8.63509 14.8583 8.9821C14.1732 9.3291 13.3502 9.5026 12.3893 9.5026ZM12.3893 8.2347C12.8786 8.2347 13.3102 8.16797 13.6839 8.0345C14.0665 7.90104 14.3868 7.6964 14.6448 7.42057C14.9117 7.14475 15.1119 6.79774 15.2454 6.37956C15.3878 5.96137 15.4589 5.47645 15.4589 4.9248V4.63118C15.4589 4.06174 15.3878 3.56793 15.2454 3.14974C15.1119 2.73155 14.9117 2.38455 14.6448 2.10872C14.3868 1.8329 14.0665 1.62826 13.6839 1.49479C13.3102 1.36133 12.8786 1.2946 12.3893 1.2946C11.9088 1.2946 11.4773 1.36133 11.0947 1.49479C10.721 1.62826 10.4007 1.8329 10.1337 2.10872C9.87571 2.38455 9.67996 2.73155 9.5465 3.14974C9.41304 3.56793 9.3463 4.06174 9.3463 4.63118V4.9248C9.3463 5.47645 9.41304 5.96137 9.5465 6.37956C9.67996 6.79774 9.87571 7.14475 10.1337 7.42057C10.4007 7.6964 10.721 7.90104 11.0947 8.0345C11.4773 8.16797 11.9088 8.2347 12.3893 8.2347Z" fill="white"/>
<path d="M17.5341 9.34245L21.1242 0.186849H23.0328L26.6363 9.34245H25.0347L24.2206 7.22038H19.883L19.0689 9.34245H17.5341ZM20.3635 5.95247H23.7268L22.6991 3.26986C22.6724 3.18978 22.6324 3.07856 22.579 2.9362C22.5256 2.79384 22.4678 2.63813 22.4055 2.46907C22.3521 2.30002 22.2943 2.13097 22.232 1.96191C22.1786 1.78396 22.1297 1.62381 22.0852 1.48145H22.0051C21.9517 1.6505 21.885 1.85069 21.8049 2.08203C21.7248 2.31337 21.6448 2.53581 21.5647 2.74935C21.4935 2.96289 21.4312 3.13639 21.3778 3.26986L20.3635 5.95247Z" fill="white"/>
<path d="M31.7832 9.5026C30.84 9.5026 30.0215 9.3291 29.3275 8.9821C28.6423 8.63509 28.1129 8.11013 27.7392 7.40723C27.3744 6.70432 27.192 5.82346 27.192 4.76465C27.192 3.69694 27.3744 2.81608 27.7392 2.12207C28.1129 1.41916 28.6423 0.894206 29.3275 0.547201C30.0215 0.200196 30.84 0.0266932 31.7832 0.0266932C32.7441 0.0266932 33.5671 0.200196 34.2523 0.547201C34.9374 0.894206 35.4623 1.41916 35.8271 2.12207C36.2008 2.81608 36.3877 3.69694 36.3877 4.76465C36.3877 5.82346 36.2008 6.70432 35.8271 7.40723C35.4623 8.11013 34.9374 8.63509 34.2523 8.9821C33.5671 9.3291 32.7441 9.5026 31.7832 9.5026ZM31.7832 8.2347C32.2726 8.2347 32.7041 8.16797 33.0778 8.0345C33.4604 7.90104 33.7807 7.6964 34.0387 7.42057C34.3056 7.14475 34.5058 6.79774 34.6393 6.37956C34.7817 5.96137 34.8528 5.47645 34.8528 4.9248V4.63118C34.8528 4.06174 34.7817 3.56793 34.6393 3.14974C34.5058 2.73155 34.3056 2.38455 34.0387 2.10872C33.7807 1.8329 33.4604 1.62826 33.0778 1.49479C32.7041 1.36133 32.2726 1.2946 31.7832 1.2946C31.3027 1.2946 30.8712 1.36133 30.4886 1.49479C30.1149 1.62826 29.7946 1.8329 29.5277 2.10872C29.2696 2.38455 29.0739 2.73155 28.9404 3.14974C28.8069 3.56793 28.7402 4.06174 28.7402 4.63118V4.9248C28.7402 5.47645 28.8069 5.96137 28.9404 6.37956C29.0739 6.79774 29.2696 7.14475 29.5277 7.42057C29.7946 7.6964 30.1149 7.90104 30.4886 8.0345C30.8712 8.16797 31.3027 8.2347 31.7832 8.2347Z" fill="white"/>
<path d="M40.0278 9.34245V1.4681H36.9982V0.186849H44.5789V1.4681H41.5226V9.34245H40.0278Z" fill="white"/>
<path d="M45.9576 9.34245V0.186849H53.0579V1.4681H47.4524V4.01725H52.4707V5.2985H47.4524V8.0612H53.138V9.34245H45.9576Z" fill="white"/>
<path d="M54.9508 9.34245V0.186849H56.4456V8.04785H61.01V9.34245H54.9508Z" fill="white"/>
<path d="M62.3147 9.34245V0.186849H69.415V1.4681H63.8095V4.01725H68.8278V5.2985H63.8095V8.0612H69.4951V9.34245H62.3147Z" fill="white"/>
<path d="M74.6979 9.5026C74.1996 9.5026 73.7191 9.44922 73.2565 9.34245C72.7938 9.24457 72.3845 9.08442 72.0286 8.86198C71.6727 8.63064 71.3924 8.34147 71.1878 7.99447C70.9831 7.63856 70.8808 7.21593 70.8808 6.72656C70.8808 6.67318 70.8808 6.62424 70.8808 6.57975C70.8897 6.52637 70.8941 6.48188 70.8941 6.44629H72.3889C72.3889 6.47298 72.3845 6.51302 72.3756 6.56641C72.3756 6.61979 72.3756 6.66428 72.3756 6.69987C72.3756 7.02908 72.4735 7.30935 72.6692 7.54069C72.865 7.77203 73.1363 7.94553 73.4833 8.0612C73.8392 8.17687 74.2441 8.2347 74.6979 8.2347C74.947 8.2347 75.1872 8.22135 75.4186 8.19466C75.6499 8.15907 75.859 8.11013 76.0458 8.04785C76.2416 7.97667 76.4106 7.89214 76.553 7.79427C76.6954 7.6875 76.8066 7.56293 76.8867 7.42057C76.9667 7.27821 77.0068 7.11361 77.0068 6.92676C77.0068 6.64203 76.9222 6.40625 76.7532 6.2194C76.593 6.03255 76.3706 5.87684 76.0859 5.75228C75.8101 5.62771 75.4942 5.51649 75.1383 5.41862C74.7913 5.32075 74.4309 5.22287 74.0572 5.125C73.6835 5.02713 73.3187 4.91146 72.9628 4.77799C72.6158 4.64453 72.3 4.48437 72.0152 4.29753C71.7394 4.10178 71.517 3.86155 71.3479 3.57682C71.1878 3.2832 71.1077 2.9273 71.1077 2.50911C71.1077 2.10872 71.1922 1.75282 71.3613 1.44141C71.5303 1.12999 71.775 0.871962 72.0953 0.667318C72.4156 0.453776 72.7982 0.29362 73.2431 0.186849C73.688 0.0800783 74.1907 0.0266932 74.7512 0.0266932C75.2317 0.0266932 75.6855 0.0800783 76.1126 0.186849C76.5397 0.284722 76.9133 0.44043 77.2337 0.653972C77.554 0.867513 77.8031 1.13889 77.9811 1.4681C78.1679 1.79731 78.2613 2.1888 78.2613 2.64258V2.80273H76.7799V2.62923C76.7799 2.34451 76.6954 2.10428 76.5263 1.90853C76.3573 1.71278 76.1215 1.56152 75.8189 1.45475C75.5164 1.34798 75.165 1.2946 74.7646 1.2946C74.293 1.2946 73.8971 1.34353 73.5768 1.44141C73.2564 1.53038 73.0118 1.6594 72.8427 1.82845C72.6826 1.98861 72.6025 2.18435 72.6025 2.41569C72.6025 2.67372 72.687 2.88726 72.8561 3.05632C73.0251 3.21647 73.2476 3.35438 73.5234 3.47005C73.8081 3.58572 74.124 3.69249 74.471 3.79036C74.8269 3.87934 75.1872 3.97721 75.552 4.08398C75.9257 4.18186 76.2861 4.29753 76.6331 4.43099C76.989 4.56445 77.3048 4.72906 77.5807 4.9248C77.8654 5.12055 78.0923 5.36523 78.2613 5.65885C78.4304 5.94358 78.5149 6.29503 78.5149 6.71322C78.5149 7.37164 78.3503 7.90994 78.0211 8.32812C77.6919 8.73741 77.2381 9.03548 76.6598 9.22233C76.0903 9.40918 75.4364 9.5026 74.6979 9.5026Z" fill="white"/>
<path d="M80.3023 0H81.677C81.7926 0 81.8505 0.0533856 81.8505 0.160157V9.18229C81.8505 9.28906 81.7926 9.34245 81.677 9.34245H80.3023C80.2578 9.34245 80.2178 9.3291 80.1822 9.30241C80.1555 9.26682 80.1421 9.22678 80.1421 9.18229V0.160157C80.1421 0.115669 80.1555 0.0800785 80.1822 0.0533856C80.2178 0.0177953 80.2578 0 80.3023 0Z" fill="white"/>
<path d="M82.4012 4.63118L85.7378 0.266928C85.8535 0.124566 86.0003 0.0533856 86.1782 0.0533856H87.8732C87.9266 0.0533856 87.9622 0.0756294 87.98 0.120117C88.0067 0.164605 88.0067 0.209093 87.98 0.253581L84.5366 4.72461L87.98 9.20898C88.0067 9.25347 88.0067 9.29796 87.98 9.34245C87.9622 9.38693 87.9266 9.40918 87.8732 9.40918H86.1782C85.9914 9.40918 85.8446 9.33355 85.7378 9.18229L82.4012 4.83138C82.3389 4.7602 82.3389 4.69347 82.4012 4.63118Z" fill="#A515F7"/>
</svg>
